<svg xmlns="http://www.w3.org/2000/svg" xmlns:xlink="http://www.w3.org/1999/xlink" id="svg">
    <symbol id="icon-mail" viewBox="0 0 30 30">
        <title>mail-envelope-closed</title>
        <path d="M5.315 9.274l7.735 6.726-7.737 6.728c-0.194-0.184-0.313-0.445-0.313-0.735v-11.986c0-0.289 0.121-0.549 0.315-0.733zM27.687 9.272c0.194 0.184 0.313 0.445 0.313 0.735v11.986c0 0.289-0.121 0.549-0.315 0.733l-7.735-6.726 7.737-6.728zM19.202 16.651l7.298 6.349h-20l7.298-6.349 2.702 2.349 2.702-2.349zM6.004 8c-1.107 0-2.004 0.895-2.004 1.994v12.012c0 1.101 0.89 1.994 2.004 1.994h20.993c1.107 0 2.004-0.895 2.004-1.994v-12.012c0-1.101-0.89-1.994-2.004-1.994h-20.993zM16.5 17.7l-10-8.7h20l-10 8.7z"></path>
    </symbol>

    <symbol id="icon-phone" viewBox="0 0 32 32">
        <title>phone</title>
        <path d="M26 32h-21c-1.105 0-2-0.896-2-2v-24c0-1.105 0.895-2 2-2v24c0 1.104 0.896 2 2 2h4c1.105 0 2-0.896 2-2v-24h13c1.105 0 2 0.896 2 2v24c0 1.104-0.895 2-2 2zM21 29h2v-2h-2v2zM21 26h2v-2h-2v2zM21 23h2v-2h-2v2zM21 20h2v-2h-2v2zM18 29h2v-2h-2v2zM18 26h2v-2h-2v2zM18 23h2v-2h-2v2zM18 20h2v-2h-2v2zM26 7c0-0.553-0.447-1-1-1h-9c-0.552 0-1 0.447-1 1v4c0 0.552 0.448 1 1 1h9c0.553 0 1-0.448 1-1v-4zM26 18h-2v2h2v-2zM26 21h-2v2h2v-2zM26 24h-2v2h2v-2zM26 27h-2v2h2v-2zM11 29h-4c-0.552 0-1-0.447-1-1v-25c0-0.553 0.448-1 1-1h1.938v-2h1.062v2h1c0.552 0 1 0.447 1 1v25c0 0.553-0.448 1-1 1z"></path>
    </symbol>
    <symbol id="icon-basket" viewBox="0 0 42 32">
        <title>basket</title>
        <path d="M39.5 14h-37c-0.154 0-0.3 0.071-0.395 0.192s-0.128 0.279-0.091 0.429l4.006 16.017c0.096 0.337 0.391 1.362 1.48 1.362h27c1.093 0 1.385-1.026 1.485-1.379l4-16c0.037-0.149 0.004-0.308-0.091-0.429s-0.24-0.192-0.394-0.192zM35.020 30.363c-0.182 0.637-0.37 0.637-0.52 0.637h-27c-0.149 0-0.336 0-0.515-0.621l-3.844-15.379h35.719l-3.84 15.363zM18.5 28c0.276 0 0.5-0.224 0.5-0.5v-9c0-0.276-0.224-0.5-0.5-0.5s-0.5 0.224-0.5 0.5v9c0 0.276 0.224 0.5 0.5 0.5zM11.499 28c0.019 0 0.037-0.001 0.057-0.003 0.274-0.031 0.472-0.278 0.441-0.552l-1-9c-0.030-0.275-0.27-0.469-0.553-0.442-0.274 0.031-0.472 0.278-0.441 0.552l1 9c0.028 0.256 0.245 0.445 0.496 0.445zM24.5 28c0.276 0 0.5-0.224 0.5-0.5v-9c0-0.276-0.224-0.5-0.5-0.5s-0.5 0.224-0.5 0.5v9c0 0.276 0.224 0.5 0.5 0.5zM30.444 27.997c0.020 0.002 0.038 0.003 0.057 0.003 0.251 0 0.468-0.189 0.496-0.445l1-9c0.030-0.274-0.167-0.521-0.441-0.552-0.287-0.028-0.522 0.167-0.553 0.442l-1 9c-0.030 0.274 0.167 0.521 0.441 0.552zM34.5 12c0.116 0 0.232-0.040 0.327-0.122 0.209-0.181 0.231-0.496 0.051-0.705l-9.5-11c-0.181-0.21-0.496-0.231-0.705-0.052-0.209 0.181-0.231 0.496-0.051 0.705l9.5 11c0.099 0.115 0.238 0.174 0.378 0.174zM17.816 0.113c-0.213-0.173-0.528-0.144-0.703 0.071l-9 11c-0.175 0.213-0.144 0.528 0.070 0.704 0.093 0.075 0.206 0.112 0.317 0.112 0.145 0 0.288-0.062 0.387-0.184l9-11c0.175-0.213 0.143-0.528-0.071-0.703zM41.5 10h-4c-0.276 0-0.5 0.224-0.5 0.5s0.224 0.5 0.5 0.5h4c0.276 0 0.5-0.224 0.5-0.5s-0.224-0.5-0.5-0.5zM13.5 11h16c0.276 0 0.5-0.224 0.5-0.5s-0.224-0.5-0.5-0.5h-16c-0.276 0-0.5 0.224-0.5 0.5s0.224 0.5 0.5 0.5zM0.5 11h5c0.276 0 0.5-0.224 0.5-0.5s-0.224-0.5-0.5-0.5h-5c-0.276 0-0.5 0.224-0.5 0.5s0.224 0.5 0.5 0.5z"></path>
    </symbol>
    <symbol id="icon-google" viewBox="0 0 20 20">
        <title>google</title>
        <path d="M1.989 5.589c0 1.494 0.499 2.572 1.482 3.205 0.806 0.52 1.74 0.598 2.226 0.598 0.118 0 0.213-0.006 0.279-0.010 0 0-0.154 1.004 0.59 1.996h-0.034c-1.289 0-5.493 0.269-5.493 3.727 0 3.516 3.861 3.695 4.636 3.695 0.061 0 0.097-0.002 0.097-0.002 0.008 0 0.063 0.002 0.158 0.002 0.497 0 1.782-0.062 2.975-0.643 1.548-0.75 2.333-2.059 2.333-3.885 0-1.764-1.196-2.814-2.069-3.582-0.533-0.469-0.994-0.873-0.994-1.266 0-0.4 0.337-0.701 0.762-1.082 0.689-0.615 1.339-1.492 1.339-3.15 0-1.457-0.189-2.436-1.354-3.057 0.121-0.062 0.551-0.107 0.763-0.137 0.631-0.086 1.554-0.184 1.554-0.699v-0.099h-4.599c-0.046 0.002-4.651 0.172-4.651 4.389zM9.413 14.602c0.088 1.406-1.115 2.443-2.922 2.574-1.835 0.135-3.345-0.691-3.433-2.096-0.043-0.676 0.254-1.336 0.835-1.863 0.589-0.533 1.398-0.863 2.278-0.928 0.104-0.006 0.207-0.012 0.31-0.012 1.699 0.001 2.849 0.999 2.932 2.325zM8.212 4.626c0.451 1.588-0.23 3.246-1.316 3.553-0.125 0.035-0.253 0.052-0.384 0.052-0.994 0-1.979-1.006-2.345-2.393-0.204-0.776-0.187-1.458 0.047-2.112 0.229-0.645 0.643-1.078 1.163-1.225 0.125-0.035 0.254-0.053 0.385-0.053 1.2 0 1.972 0.498 2.45 2.178zM16 8v-3h-2v3h-3v2h3v3h2v-3h3v-2h-3z"></path>
    </symbol>
    <symbol id="icon-instagram" viewBox="0 0 20 20">
        <title>instagram</title>
        <path d="M17 1h-14c-1.1 0-2 0.9-2 2v14c0 1.101 0.9 2 2 2h14c1.1 0 2-0.899 2-2v-14c0-1.1-0.9-2-2-2zM9.984 15.523c3.059 0 5.538-2.481 5.538-5.539 0-0.338-0.043-0.664-0.103-0.984h1.581v7.216c0 0.382-0.31 0.69-0.693 0.69h-12.614c-0.383 0-0.693-0.308-0.693-0.69v-7.216h1.549c-0.061 0.32-0.104 0.646-0.104 0.984 0 3.059 2.481 5.539 5.539 5.539zM6.523 9.984c0-1.912 1.55-3.461 3.462-3.461s3.462 1.549 3.462 3.461-1.551 3.462-3.462 3.462c-1.913 0-3.462-1.55-3.462-3.462zM16.307 6h-1.615c-0.382 0-0.692-0.312-0.692-0.692v-1.617c0-0.382 0.31-0.691 0.691-0.691h1.615c0.384 0 0.694 0.309 0.694 0.691v1.616c0 0.381-0.31 0.693-0.693 0.693z"></path>
    </symbol>
    <symbol id="icon-twitter" viewBox="0 0 32 32">
        <title>twitter</title>
        <path d="M32 7.075c-1.175 0.525-2.444 0.875-3.769 1.031 1.356-0.813 2.394-2.1 2.887-3.631-1.269 0.75-2.675 1.3-4.169 1.594-1.2-1.275-2.906-2.069-4.794-2.069-3.625 0-6.563 2.938-6.563 6.563 0 0.512 0.056 1.012 0.169 1.494-5.456-0.275-10.294-2.888-13.531-6.862-0.563 0.969-0.887 2.1-0.887 3.3 0 2.275 1.156 4.287 2.919 5.463-1.075-0.031-2.087-0.331-2.975-0.819 0 0.025 0 0.056 0 0.081 0 3.181 2.263 5.838 5.269 6.437-0.55 0.15-1.131 0.231-1.731 0.231-0.425 0-0.831-0.044-1.237-0.119 0.838 2.606 3.263 4.506 6.131 4.563-2.25 1.762-5.075 2.813-8.156 2.813-0.531 0-1.050-0.031-1.569-0.094 2.913 1.869 6.362 2.95 10.069 2.95 12.075 0 18.681-10.006 18.681-18.681 0-0.287-0.006-0.569-0.019-0.85 1.281-0.919 2.394-2.075 3.275-3.394z"></path>
    </symbol>
    <symbol id="icon-facebook" viewBox="0 0 32 32">
        <title>facebook</title>
        <path d="M19 6h5v-6h-5c-3.86 0-7 3.14-7 7v3h-4v6h4v16h6v-16h5l1-6h-6v-3c0-0.542 0.458-1 1-1z"></path>
    </symbol>
    <symbol id="icon-search" viewBox="0 0 32 32">
        <title>search</title>
        <path d="M28.591 27.273l-7.263-7.264c1.46-1.756 2.339-4.010 2.339-6.471 0-5.595-4.535-10.129-10.129-10.129s-10.129 4.535-10.129 10.129c0 5.594 4.536 10.129 10.129 10.129 2.462 0 4.716-0.879 6.471-2.339l7.263 7.264 1.319-1.319zM4.475 13.538c0-4.997 4.065-9.063 9.063-9.063 4.997 0 9.063 4.066 9.063 9.063s-4.066 9.063-9.063 9.063c-4.998 0-9.063-4.066-9.063-9.063z"></path>
    </symbol>
    <symbol id="icon-user" viewBox="0 0 32 32">
    <title>user</title>
    <path d="M16 3.205c-7.067 0-12.795 5.728-12.795 12.795s5.728 12.795 12.795 12.795 12.795-5.728 12.795-12.795c0-7.067-5.728-12.795-12.795-12.795zM16 4.271c6.467 0 11.729 5.261 11.729 11.729 0 2.845-1.019 5.457-2.711 7.49-1.169-0.488-3.93-1.446-5.638-1.951-0.146-0.046-0.169-0.053-0.169-0.66 0-0.501 0.206-1.005 0.407-1.432 0.218-0.464 0.476-1.244 0.569-1.944 0.259-0.301 0.612-0.895 0.839-2.026 0.199-0.997 0.106-1.36-0.026-1.7-0.014-0.036-0.028-0.071-0.039-0.107-0.050-0.234 0.019-1.448 0.189-2.391 0.118-0.647-0.030-2.022-0.921-3.159-0.562-0.719-1.638-1.601-3.603-1.724l-1.078 0.001c-1.932 0.122-3.008 1.004-3.57 1.723-0.89 1.137-1.038 2.513-0.92 3.159 0.172 0.943 0.239 2.157 0.191 2.387-0.010 0.040-0.025 0.075-0.040 0.111-0.131 0.341-0.225 0.703-0.025 1.7 0.226 1.131 0.579 1.725 0.839 2.026 0.092 0.7 0.35 1.48 0.569 1.944 0.159 0.339 0.234 0.801 0.234 1.454 0 0.607-0.023 0.614-0.159 0.657-1.767 0.522-4.579 1.538-5.628 1.997-1.725-2.042-2.768-4.679-2.768-7.555 0-6.467 5.261-11.729 11.729-11.729zM7.811 24.386c1.201-0.49 3.594-1.344 5.167-1.808 0.914-0.288 0.914-1.058 0.914-1.677 0-0.513-0.035-1.269-0.335-1.908-0.206-0.438-0.442-1.189-0.494-1.776-0.011-0.137-0.076-0.265-0.18-0.355-0.151-0.132-0.458-0.616-0.654-1.593-0.155-0.773-0.089-0.942-0.026-1.106 0.027-0.070 0.053-0.139 0.074-0.216 0.128-0.468-0.015-2.005-0.17-2.858-0.068-0.371 0.018-1.424 0.711-2.311 0.622-0.795 1.563-1.238 2.764-1.315l1.011-0.001c1.233 0.078 2.174 0.521 2.797 1.316 0.694 0.887 0.778 1.94 0.71 2.312-0.154 0.852-0.298 2.39-0.17 2.857 0.022 0.078 0.047 0.147 0.074 0.217 0.064 0.163 0.129 0.333-0.025 1.106-0.196 0.977-0.504 1.461-0.655 1.593-0.103 0.091-0.168 0.218-0.18 0.355-0.051 0.588-0.286 1.338-0.492 1.776-0.236 0.502-0.508 1.171-0.508 1.886 0 0.619 0 1.389 0.924 1.68 1.505 0.445 3.91 1.271 5.18 1.77-2.121 2.1-5.035 3.4-8.248 3.4-3.183 0-6.073-1.277-8.188-3.342z"></path>
</symbol>
    <symbol id="icon-add_shopping_cart" viewBox="0 0 24 24">
        <title>add_shopping_cart</title>
        <path d="M7.172 14.766c0 0.141 0.094 0.234 0.234 0.234h11.578v2.016h-12c-1.078 0-1.969-0.938-1.969-2.016 0-0.328 0.094-0.656 0.234-0.938l1.359-2.484-3.609-7.594h-2.016v-1.969h3.281c0.633 1.32 1.258 2.648 1.875 3.984 0.798 1.67 1.584 3.353 2.391 5.016h7.031c1.284-2.341 2.591-4.659 3.844-7.031l1.734 0.984-3.844 6.984c-0.328 0.609-0.984 1.031-1.734 1.031h-7.453l-0.891 1.641zM17.016 18c1.078 0 1.969 0.938 1.969 2.016s-0.891 1.969-1.969 1.969-2.016-0.891-2.016-1.969 0.938-2.016 2.016-2.016zM6.984 18c1.078 0 2.016 0.938 2.016 2.016s-0.938 1.969-2.016 1.969-1.969-0.891-1.969-1.969 0.891-2.016 1.969-2.016zM11.016 9v-3h-3v-2.016h3v-3h1.969v3h3v2.016h-3v3h-1.969z"></path>
    </symbol>
    <symbol id="icon-network" viewBox="0 0 20 20">
        <title>network</title>
        <path d="M10 20c-5.523 0-10-4.477-10-10s4.477-10 10-10v0c5.523 0 10 4.477 10 10s-4.477 10-10 10v0zM17.75 12c0.161-0.6 0.254-1.289 0.254-2s-0.093-1.4-0.266-2.056l0.013 0.056h-3.82c0.044 0.598 0.070 1.296 0.070 2s-0.025 1.402-0.075 2.093l0.005-0.093h3.82zM16.93 14h-3.22c-0.186 1.31-0.518 2.493-0.985 3.605l0.035-0.095c1.782-0.67 3.226-1.9 4.15-3.472l0.020-0.038zM8.080 12h3.84c0.052-0.599 0.081-1.296 0.081-2s-0.030-1.401-0.088-2.090l0.006 0.090h-3.84c-0.052 0.599-0.081 1.296-0.081 2s0.030 1.401 0.088 2.090l-0.006-0.090zM8.33 14c0.41 2.4 1.13 4 1.67 4s1.26-1.6 1.67-4h-3.34zM2.25 12h3.82c-0.044-0.598-0.070-1.296-0.070-2s0.025-1.402 0.075-2.093l-0.005 0.093h-3.82c-0.161 0.6-0.254 1.289-0.254 2s0.093 1.4 0.266 2.056l-0.013-0.056zM3.070 14c0.944 1.61 2.388 2.84 4.115 3.492l0.055 0.018c-0.42-0.96-0.74-2.16-0.95-3.51h-3.22zM16.93 6c-0.944-1.61-2.388-2.84-4.115-3.492l-0.055-0.018c0.42 0.96 0.74 2.16 0.95 3.51h3.22zM8.33 6h3.34c-0.41-2.4-1.13-4-1.67-4s-1.26 1.6-1.67 4zM3.070 6h3.22c0.2-1.35 0.53-2.55 0.95-3.51-1.782 0.67-3.226 1.9-4.15 3.472l-0.020 0.038z"></path>
    </symbol>
    <symbol id="icon-like" viewBox="0 0 32 32">
        <title>like</title>
        <path d="M21.886 5.115c3.521 0 6.376 2.855 6.376 6.376 0 1.809-0.754 3.439-1.964 4.6l-10.297 10.349-10.484-10.536c-1.1-1.146-1.778-2.699-1.778-4.413 0-3.522 2.855-6.376 6.376-6.376 2.652 0 4.925 1.62 5.886 3.924 0.961-2.304 3.234-3.924 5.886-3.924zM21.886 4.049c-2.345 0-4.499 1.089-5.886 2.884-1.386-1.795-3.54-2.884-5.886-2.884-4.104 0-7.442 3.339-7.442 7.442 0 1.928 0.737 3.758 2.075 5.152l11.253 11.309 11.053-11.108c1.46-1.402 2.275-3.308 2.275-5.352 0-4.104-3.339-7.442-7.442-7.442v0z"></path>
    </symbol>
</svg>